{"title":"Takers - 2010 (No Cinavia) 1080p","uid":11390521,"size":1617040801,"categoryP":"video","categoryS":"hd___movies","magnet":"?xt=urn:btih:2c201e353405aba23a759bf21f43f12f5275ffac&amp;dn=+Takers+-+2010+%28No+Cinavia%29+1080p&amp;tr=udp%3A%2F%2Ftracker.openbittorrent.com%3A80&amp;tr=udp%3A%2F%2Fopen.demonii.com%3A1337&amp;tr=udp%3A%2F%2Ftracker.coppersurfer.tk%3A6969&amp;tr=udp%3A%2F%2Fexodus.desync.com%3A6969","seeders":4,"leechers":1,"uploader":"AlienMethod","files":7,"time":1415320850,"description":"x264/MP4\nCinavia Removed/CinExHD\n(Processed from Yify Encode)\n2-Channel AAC Audio\nEnglish Subs Incl.\n\n&quot;A group of bank robbers find their multi-million dollar plan interrupted by a hard-boiled detective.&quot;\n\n\n\nVideo\nID : 1\nFormat : AVC\nFormat/Info : Advanced Video Codec\nFormat profile : &lt;a class=&quot;__cf_email__&quot; href=&quot;/cdn-cgi/l/email-protection&quot; data-cfemail=&quot;6028090708202c544e50&quot;&gt;[email&amp;#160;protected]&lt;/a&gt;&lt;script cf-hash='f9e31' type=&quot;text/javascript&quot;&gt;\n/* &lt;![CDATA[ */!function(){try{var t=&quot;currentScript&quot;in document?document.currentScript:function(){for(var t=document.getElementsByTagName(&quot;script&quot;),e=t.length;e--;)if(t[e].getAttribute(&quot;cf-hash&quot;))return t[e]}();if(t&amp;&amp;t.previousSibling){var e,r,n,i,c=t.previousSibling,a=c.getAttribute(&quot;data-cfemail&quot;);if(a){for(e=&quot;&quot;,r=parseInt(a.substr(0,2),16),n=2;a.length-n;n+=2)i=parseInt(a.substr(n,2),16)^r,e+=String.fromCharCode(i);e=document.createTextNode(e),c.parentNode.replaceChild(e,c)}}}catch(u){}}();/* ]]&gt; */&lt;/script&gt;\nFormat settings, CABAC : Yes\nFormat settings, ReFrames : 5 frames\nCodec ID : avc1\nCodec ID/Info : Advanced Video Coding\nDuration : 1h 47mn\nBit rate : 1 917 Kbps\nWidth : 1 920 pixels\nHeight : 800 pixels\nDisplay aspect ratio : 2.40:1\nFrame rate mode : Constant\nFrame rate : 23.976 fps\nColor space : YUV\nChroma subsampling : 4:2:0\nBit depth : 8 bits\nScan type : Progressive\nBits/(Pixel*Frame) : 0.052\nStream size : 1.43 GiB (95%)\nWriting library : x264 core 120 r2164 da19765\n\n\nAudio\nID : 2\nFormat : AAC\nFormat/Info : Advanced Audio Codec\nFormat profile : LC\nCodec ID : 40\nDuration : 1h 47mn\nBit rate mode : Variable\nBit rate : 91.9 Kbps\nMaximum bit rate : 368 Kbps\nChannel(s) : 2 channels\nChannel positions : Front: L R\nSampling rate : 48.0 KHz\nCompression mode : Lossy\nStream size : 70.4 MiB (5%)\n\nm/ AM m/","torrent":{"xt":"urn:btih:2c201e353405aba23a759bf21f43f12f5275ffac","amp;dn":"+Takers+-+2010+%28No+Cinavia%29+1080p","amp;tr":["udp%3A%2F%2Ftracker.openbittorrent.com%3A80","udp%3A%2F%2Fopen.demonii.com%3A1337","udp%3A%2F%2Ftracker.coppersurfer.tk%3A6969","udp%3A%2F%2Fexodus.desync.com%3A6969"],"infoHash":"2c201e353405aba23a759bf21f43f12f5275ffac","infoHashBuffer":{"type":"Buffer","data":[44,32,30,53,52,5,171,162,58,117,155,242,31,67,241,47,82,117,255,172]},"announce":[],"urlList":[]}}